<svg width="64" height="64" viewBox="0 0 40 40" fill="none" xmlns="http://www.w3.org/2000/svg">
  <rect width="40" height="40" rx="9" fill="#0B1D2D"/>
  <rect width="40" height="40" rx="9" fill="url(#bgGrad)"/>
  <!-- B vertical stem -->
  <rect x="5" y="8" width="4" height="24" rx="1.5" fill="white"/>
  <!-- B top bump -->
  <path d="M9 8 H15 Q20.5 8 20.5 13.5 Q20.5 19 15 19 H9 Z" fill="white"/>
  <!-- B bottom bump -->
  <path d="M9 19 H15.5 Q21.5 19 21.5 25 Q21.5 32 15.5 32 H9 Z" fill="white"/>
  <!-- G letterform -->
  <path d="M35.5 14.5 C33.5 11.2 30.4 9 26.8 9 C21.2 9 16.8 13.6 16.8 19.5 C16.8 25.4 21.2 30 26.8 30 C29.6 30 32.1 28.8 33.9 26.9 L33.9 20.5 H27.5 V23.5 H30.8 V25.5 C29.7 26.1 28.3 26.5 26.8 26.5 C23.1 26.5 20.2 23.3 20.2 19.5 C20.2 15.7 23.1 12.5 26.8 12.5 C29 12.5 31 13.6 32.3 15.4 Z" fill="white"/>
  <!-- Gold checkmark -->
  <path d="M5.5 29.5 L11.5 35.5 L34.5 14" stroke="#D4AF37" stroke-width="2.8" stroke-linecap="round" stroke-linejoin="round"/>
  <defs>
    <linearGradient id="bgGrad" x1="0" y1="0" x2="40" y2="40" gradientUnits="userSpaceOnUse">
      <stop offset="0%" stop-color="#1E3550" stop-opacity="1"/>
      <stop offset="100%" stop-color="#0B1D2D" stop-opacity="1"/>
    </linearGradient>
  </defs>
</svg>
